# xmcd
#
# Track frame offsets:
# 150
# 15230
# 31633
# 48306
# 59039
# 72337
# 90387
# 102146
# 117847
# 159549
# 168555
# 181124
# 196501
# 218763
# 233951
# 255133
# 268107
# 281999
#
# Disc length: 4153 seconds
#
#
# Revision: 0
# Processed by: cddbd v1.5.1PL2 Copyright (c) Steve Scherf et al.
# Submitted via: FreeRIP 2.944 
#
DISCID=e9103712
DTITLE=trio da huanna - o sistema e bruto
DYEAR=2006
DGENRE=brasileiro
TTITLE0=sistema bruto
TTITLE1=encosta no canto
TTITLE2=contregum,arrocha como a bicha,mosquito
TTITLE3=pirimpompom
TTITLE4=comentario
TTITLE5=fuleragem
TTITLE6=chupa toda
TTITLE7=chora guitarra
TTITLE8=tome ai!
TTITLE9=olho de tandera
TTITLE10=deixa doido eu
TTITLE11=coraçao
TTITLE12=tum,tum,tum,tum
TTITLE13=pra te esquecer
TTITLE14=simancol
TTITLE15=chamegao
TTITLE16=love you mon amor
TTITLE17=tome amor
EXTD=
EXTT0=
EXTT1=
EXTT2=
EXTT3=
EXTT4=
EXTT5=
EXTT6=
EXTT7=
EXTT8=
EXTT9=
EXTT10=
EXTT11=
EXTT12=
EXTT13=
EXTT14=
EXTT15=
EXTT16=
EXTT17=
PLAYORDER=
